<svg width="60" height="60" viewBox="0 0 60 60" fill="none" xmlns="http://www.w3.org/2000/svg">
<path d="M58.4767 44.3836L3.45718 59.9413C2.83218 60.0978 2.20718 59.9022 1.58218 59.3542C0.957181 58.8063 0.507963 58.0626 0.234525 57.1233C-0.0389123 56.184 -0.0584435 55.3229 0.175931 54.5401C0.410306 53.7573 0.859525 53.2877 1.52359 53.1311L56.5431 37.5734C57.1681 37.4168 57.7931 37.6125 58.4181 38.1605C59.0431 38.7084 59.4923 39.4521 59.7658 40.3914C60.0392 41.3307 60.0587 42.1918 59.8244 42.9746C59.59 43.7573 59.1408 44.227 58.4767 44.3836ZM48.7501 35.3425C48.7111 35.773 48.633 36.3014 48.5158 36.9276L37.2658 40.0978C37.422 39.0411 37.5001 38.18 37.5001 37.5147C37.5001 31.409 34.3751 26.3992 28.1251 22.4853C28.1251 22.5636 28.0666 22.9159 27.9494 23.5421C27.8322 24.1683 27.7345 24.6575 27.6564 25.0098C27.5783 25.362 27.4416 25.91 27.2462 26.6536C27.0509 27.3973 26.8556 28.0333 26.6603 28.5616C26.465 29.09 26.2306 29.7358 25.9572 30.499C25.6837 31.2622 25.3712 31.9374 25.0197 32.5245C24.6681 33.1115 24.2775 33.728 23.8478 34.3738C23.4181 35.0196 22.9298 35.6067 22.383 36.135C21.8361 36.6634 21.2501 37.1233 20.6251 37.5147C20.0001 37.9061 19.4923 38.591 19.1017 39.5695L13.8283 38.1018C13.7892 38.1018 13.7599 38.1115 13.7404 38.1311L13.7111 38.1605L13.7697 38.1018L11.3673 37.3973C11.5236 36.0665 12.1681 34.2368 13.3009 31.908C14.4337 29.5793 15.0001 27.6908 15.0001 26.2427C15.0001 24.4031 14.8732 22.5734 14.6193 20.7534C14.3654 18.9335 14.0626 17.3875 13.7111 16.1155C13.3595 14.8434 12.9982 13.6986 12.6271 12.681C12.256 11.6634 11.9337 10.9002 11.6603 10.3914L11.3087 9.62818C15.0978 11.2329 19.0041 13.5029 23.0275 16.4384C23.0666 16.2818 23.174 15.9687 23.3498 15.499C23.5255 15.0294 23.6427 14.726 23.7013 14.589C23.7599 14.4521 23.8478 14.1879 23.965 13.7965C24.0822 13.4051 24.1603 13.1115 24.1994 12.9159C24.2384 12.7202 24.2775 12.4658 24.3166 12.1526C24.3556 11.8395 24.3751 11.5264 24.3751 11.2133C24.3751 9.41292 24.0626 7.57339 23.4376 5.69472C22.8126 3.81605 22.1876 2.38748 21.5626 1.409L20.6837 0C21.0744 0.156556 21.6212 0.401174 22.3244 0.733855C23.0275 1.06654 24.3849 1.80039 26.3966 2.93542C28.4084 4.07045 30.3029 5.26419 32.0802 6.51663C33.8576 7.76908 35.7912 9.37378 37.881 11.3307C39.9709 13.2877 41.6994 15.2838 43.0666 17.319L43.1251 17.3777C44.0626 16.1644 45.3127 15.0489 46.8751 14.0313C48.4376 13.0137 49.7658 12.2896 50.8595 11.8591L52.4416 11.2133C52.3244 11.3699 52.1388 11.5851 51.8849 11.8591C51.631 12.1331 51.1818 12.7202 50.5373 13.6204C49.8927 14.5205 49.3166 15.4403 48.8087 16.3796C48.3009 17.319 47.8224 18.5029 47.3732 19.9315C46.924 21.3601 46.6603 22.7593 46.5822 24.1292C48.1447 28.2387 48.8673 31.9765 48.7501 35.3425ZM13.7111 38.1605L13.3595 38.8063C13.3595 38.728 13.4767 38.5127 13.7111 38.1605ZM11.7775 47.319L1.52359 44.3836C0.859525 44.227 0.410306 43.7573 0.175931 42.9746C-0.0584435 42.1918 -0.0389123 41.3307 0.234525 40.3914C0.507963 39.4521 0.957181 38.7084 1.58218 38.1605C2.20718 37.6125 2.83218 37.4168 3.45718 37.5734L24.7853 43.6204L11.7775 47.319ZM58.4767 53.1311C59.1408 53.2877 59.59 53.7573 59.8244 54.5401C60.0587 55.3229 60.0392 56.184 59.7658 57.1233C59.4923 58.0626 59.0431 58.8063 58.4181 59.3542C57.7931 59.9022 57.1681 60.0978 56.5431 59.9413L34.2775 53.6595L47.2853 49.9609L58.4767 53.1311Z" fill="#373737"/>
</svg>
