<svg width="60" height="60" viewBox="0 0 60 60" fill="none" xmlns="http://www.w3.org/2000/svg">
<path d="M10 32.5H25C26.375 32.5 27.5 31.375 27.5 30V10C27.5 8.625 26.375 7.5 25 7.5H10C8.625 7.5 7.5 8.625 7.5 10V30C7.5 31.375 8.625 32.5 10 32.5ZM10 52.5H25C26.375 52.5 27.5 51.375 27.5 50V40C27.5 38.625 26.375 37.5 25 37.5H10C8.625 37.5 7.5 38.625 7.5 40V50C7.5 51.375 8.625 52.5 10 52.5ZM35 52.5H50C51.375 52.5 52.5 51.375 52.5 50V30C52.5 28.625 51.375 27.5 50 27.5H35C33.625 27.5 32.5 28.625 32.5 30V50C32.5 51.375 33.625 52.5 35 52.5ZM32.5 10V20C32.5 21.375 33.625 22.5 35 22.5H50C51.375 22.5 52.5 21.375 52.5 20V10C52.5 8.625 51.375 7.5 50 7.5H35C33.625 7.5 32.5 8.625 32.5 10Z" fill="#373737"/>
</svg>
