<svg width="60" height="60" viewBox="0 0 60 60" fill="none" xmlns="http://www.w3.org/2000/svg">
<g clip-path="url(#clip0)">
<path d="M58.1011 54.306L54.0001 42H49.5001L51.9991 54H8.0011L10.5001 42H6.0001L1.8961 54.306C0.855105 57.438 2.7001 60 6.0001 60H54.0001C57.3001 60 59.1451 57.438 58.1011 54.306ZM45.0001 15C45.0001 11.0218 43.4198 7.20644 40.6067 4.3934C37.7937 1.58035 33.9784 0 30.0001 0C26.0219 0 22.2065 1.58035 19.3935 4.3934C16.5805 7.20644 15.0001 11.0218 15.0001 15C15.0001 29.325 30.0001 45 30.0001 45C30.0001 45 45.0001 29.325 45.0001 15ZM21.9001 15.18C21.9001 10.707 25.5241 7.083 30.0001 7.083C32.148 7.083 34.2078 7.93623 35.7266 9.455C37.2454 10.9738 38.0986 13.0336 38.0986 15.1815C38.0986 17.3294 37.2454 19.3892 35.7266 20.908C34.2078 22.4268 32.148 23.28 30.0001 23.28C27.8519 23.28 25.7916 22.4266 24.2725 20.9076C22.7535 19.3885 21.9001 17.3283 21.9001 15.18V15.18Z" fill="#373737"/>
</g>
<defs>
<clipPath id="clip0">
<rect width="60" height="60" fill="white"/>
</clipPath>
</defs>
</svg>
