<svg width="67" height="60" viewBox="0 0 67 60" fill="none" xmlns="http://www.w3.org/2000/svg">
<path d="M33.4286 0C25.3512 0 18.8036 6.61055 18.8036 14.7656C18.8036 21.3586 28.3621 33.375 32.0241 37.7367C32.7658 38.6203 34.0925 38.6203 34.833 37.7367C38.4951 33.375 48.0536 21.3586 48.0536 14.7656C48.0536 6.61055 41.506 0 33.4286 0ZM33.4286 19.6875C30.7357 19.6875 28.5536 17.4844 28.5536 14.7656C28.5536 12.0469 30.7357 9.84375 33.4286 9.84375C36.1214 9.84375 38.3036 12.0469 38.3036 14.7656C38.3036 17.4844 36.1214 19.6875 33.4286 19.6875ZM2.33536 25.3066C1.6461 25.585 1.05524 26.0654 0.638984 26.686C0.222728 27.3065 0.000165078 28.0388 0 28.7883L0 58.1227C0 59.4492 1.3267 60.3562 2.54661 59.8641L18.5714 52.5V25.1859C17.5454 23.3133 16.7062 21.4898 16.1049 19.7461L2.33536 25.3066ZM33.4286 42.1488C31.7954 42.1488 30.2505 41.4246 29.1908 40.1613C26.9088 37.4426 24.4818 34.3465 22.2857 31.1707V52.4988L44.5714 59.9988V31.1719C42.3754 34.3465 39.9495 37.4438 37.6663 40.1625C36.6066 41.4246 35.0617 42.1488 33.4286 42.1488ZM64.3105 18.8859L48.2857 26.25V60L64.5218 53.4434C65.2111 53.1652 65.8021 52.6848 66.2184 52.0642C66.6346 51.4436 66.8571 50.7112 66.8571 49.9617V20.6273C66.8571 19.3008 65.5304 18.3938 64.3105 18.8859Z" fill="white"/>
</svg>
