<svg width="61" height="60" viewBox="0 0 61 60" fill="none" xmlns="http://www.w3.org/2000/svg">
<path d="M50.625 0H10.125C7.43968 0 4.86435 0.948211 2.96554 2.63604C1.06674 4.32386 0 6.61305 0 8.99999V42C0 44.3869 1.06674 46.6761 2.96554 48.3639C4.86435 50.0517 7.43968 51 10.125 51H18.8662L27.9787 59.1299C28.2941 59.408 28.6681 59.628 29.0793 59.7773C29.4905 59.9266 29.9308 60.0022 30.375 59.9999C31.1794 60 31.9574 59.7447 32.5687 59.2799L43.4362 51H50.625C53.3103 51 55.8856 50.0517 57.7844 48.3639C59.6832 46.6761 60.7499 44.3869 60.7499 42V8.99999C60.7499 6.61305 59.6832 4.32386 57.7844 2.63604C55.8856 0.948211 53.3103 0 50.625 0ZM54 42C54 42.7956 53.6444 43.5587 53.0114 44.1213C52.3785 44.6839 51.5201 45 50.625 45H42.1875C41.3831 44.9999 40.6051 45.2552 39.9937 45.72L30.5437 52.92L22.6462 45.87C22.3309 45.5919 21.9569 45.3719 21.5457 45.2226C21.1345 45.0734 20.6942 44.9977 20.25 45H10.125C9.22989 45 8.37144 44.6839 7.73851 44.1213C7.10557 43.5587 6.74999 42.7956 6.74999 42V8.99999C6.74999 8.20434 7.10557 7.44128 7.73851 6.87867C8.37144 6.31607 9.22989 5.99999 10.125 5.99999H50.625C51.5201 5.99999 52.3785 6.31607 53.0114 6.87867C53.6444 7.44128 54 8.20434 54 8.99999V42Z" fill="white"/>
</svg>
