<svg width="60" height="60" viewBox="0 0 60 60" fill="none" xmlns="http://www.w3.org/2000/svg">
<path d="M11.25 30C14.7018 30 17.5 27.2018 17.5 23.75C17.5 20.2982 14.7018 17.5 11.25 17.5C7.79822 17.5 5 20.2982 5 23.75C5 27.2018 7.79822 30 11.25 30Z" fill="#373737"/>
<path d="M22.5 20C25.9518 20 28.75 17.2018 28.75 13.75C28.75 10.2982 25.9518 7.5 22.5 7.5C19.0482 7.5 16.25 10.2982 16.25 13.75C16.25 17.2018 19.0482 20 22.5 20Z" fill="#373737"/>
<path d="M37.5 20C40.9518 20 43.75 17.2018 43.75 13.75C43.75 10.2982 40.9518 7.5 37.5 7.5C34.0482 7.5 31.25 10.2982 31.25 13.75C31.25 17.2018 34.0482 20 37.5 20Z" fill="#373737"/>
<path d="M48.75 30C52.2018 30 55 27.2018 55 23.75C55 20.2982 52.2018 17.5 48.75 17.5C45.2982 17.5 42.5 20.2982 42.5 23.75C42.5 27.2018 45.2982 30 48.75 30Z" fill="#373737"/>
<path d="M43.3501 37.15C41.1751 34.6 39.3501 32.425 37.1501 29.875C36.0001 28.525 34.5251 27.175 32.7751 26.575C32.5001 26.475 32.2251 26.4 31.9501 26.35C31.3251 26.25 30.6501 26.25 30.0001 26.25C29.3501 26.25 28.6751 26.25 28.0251 26.375C27.7501 26.425 27.4751 26.5 27.2001 26.6C25.4501 27.2 24.0001 28.55 22.8251 29.9C20.6501 32.45 18.8251 34.625 16.6251 37.175C13.3501 40.45 9.32511 44.075 10.0751 49.15C10.8001 51.7 12.6251 54.225 15.9001 54.95C17.7251 55.325 23.5501 53.85 29.7501 53.85H30.2001C36.4001 53.85 42.2251 55.3 44.0501 54.95C47.3251 54.225 49.1501 51.675 49.8751 49.15C50.6501 44.05 46.6251 40.425 43.3501 37.15V37.15Z" fill="#373737"/>
</svg>
