<svg width="55" height="60" viewBox="0 0 55 60" fill="none" xmlns="http://www.w3.org/2000/svg">
<path d="M27.1875 30C35.7686 30 42.7232 23.2852 42.7232 15C42.7232 6.71484 35.7686 0 27.1875 0C18.6064 0 11.6518 6.71484 11.6518 15C11.6518 23.2852 18.6064 30 27.1875 30ZM38.0625 33.75H36.0356C33.3411 34.9453 30.3432 35.625 27.1875 35.625C24.0318 35.625 21.046 34.9453 18.3394 33.75H16.3125C7.30664 33.75 0 40.8047 0 49.5V54.375C0 57.4805 2.60951 60 5.82589 60H48.5491C51.7655 60 54.375 57.4805 54.375 54.375V49.5C54.375 40.8047 47.0684 33.75 38.0625 33.75Z" fill="white"/>
</svg>
