<svg width="75" height="60" viewBox="0 0 75 60" fill="none" xmlns="http://www.w3.org/2000/svg">
<path d="M15 15C19.1367 15 22.5 11.6367 22.5 7.5C22.5 3.36328 19.1367 0 15 0C10.8633 0 7.5 3.36328 7.5 7.5C7.5 11.6367 10.8633 15 15 15ZM60 15C64.1367 15 67.5 11.6367 67.5 7.5C67.5 3.36328 64.1367 0 60 0C55.8633 0 52.5 3.36328 52.5 7.5C52.5 11.6367 55.8633 15 60 15ZM74.918 41.543L69.5742 19.7695C69.1875 18.1875 67.7578 17.0742 66.082 16.9336C64.3242 18.0703 62.2383 18.75 59.9883 18.75C57.7383 18.75 55.6523 18.0703 53.8945 16.9336C52.2188 17.0742 50.7891 18.1875 50.4023 19.7695L45.0586 41.543C44.6484 43.3125 46.0547 45 47.9531 45H54.375V57.1875C54.375 58.7461 55.6289 60 57.1875 60H62.8125C64.3711 60 65.625 58.7461 65.625 57.1875V45H72.0469C73.9453 45 75.3516 43.3125 74.918 41.543ZM39.375 0H35.625C34.5938 0 33.75 0.84375 33.75 1.875V58.125C33.75 59.1563 34.5938 60 35.625 60H39.375C40.4063 60 41.25 59.1563 41.25 58.125V1.875C41.25 0.84375 40.4063 0 39.375 0ZM21.1055 16.9219C19.3477 18.0703 17.25 18.75 15 18.75C12.75 18.75 10.6523 18.0703 8.89453 16.9219C6.01172 17.168 3.75 19.5586 3.75 22.5V38.4375C3.75 39.9961 5.00391 41.25 6.5625 41.25H7.5V57.1875C7.5 58.7461 8.75391 60 10.3125 60H19.6875C21.2461 60 22.5 58.7461 22.5 57.1875V41.25H23.4375C24.9961 41.25 26.25 39.9961 26.25 38.4375V22.5C26.25 19.5586 23.9883 17.168 21.1055 16.9219Z" fill="#373737"/>
</svg>
