<svg width="60" height="60" viewBox="0 0 60 60" fill="none" xmlns="http://www.w3.org/2000/svg">
<path d="M16.4045 40.3378H24.2542L24.6667 36.5334H15.9929L16.4045 40.3378Z" fill="#373737"/>
<path d="M30 1.875C14.4675 1.875 1.875 14.4675 1.875 30C1.875 45.5325 14.4675 58.125 30 58.125C45.5325 58.125 58.125 45.5325 58.125 30C58.125 14.4675 45.5325 1.875 30 1.875ZM22.9941 12.1219C23.1497 12.1219 24.3656 12.1416 24.51 12.1819C25.1034 12.2259 25.7391 12.2803 28.6687 12.2972C28.908 11.973 29.2198 11.7095 29.5793 11.5276C29.9388 11.3458 30.3359 11.2507 30.7387 11.25C31.5825 11.25 32.3316 11.6606 32.8059 12.2972C35.7356 12.2803 36.3713 12.2259 36.9647 12.1819C37.1091 12.1416 38.3269 12.1219 38.4825 12.1219C39.4416 12.1219 40.2206 12.915 40.2206 13.8928C40.2206 14.8706 39.4425 15.6638 38.4825 15.6638C38.3269 15.6638 37.1091 15.6422 36.9647 15.6037C36.3713 15.5578 35.7356 15.5053 32.8059 15.4884C32.6803 15.6579 32.5345 15.8116 32.3719 15.9459V18.0919H33.3309C33.8597 18.0919 34.2881 18.5297 34.2881 19.0697C34.2881 19.6097 33.8597 20.0475 33.3309 20.0475H28.1438C27.615 20.0475 27.1866 19.6097 27.1866 19.0697C27.1866 18.5297 27.615 18.0919 28.1438 18.0919H29.1047V15.9459C28.9419 15.8111 28.7955 15.6576 28.6687 15.4884C25.7391 15.5053 25.1034 15.5578 24.51 15.6037C24.3656 15.6422 23.1497 15.6638 22.9941 15.6638C22.0331 15.6638 21.255 14.8706 21.255 13.8928C21.255 12.915 22.0331 12.1219 22.9941 12.1219V12.1219ZM24.2362 48.75H16.4213L15 35.6288H25.6566L24.2362 48.75ZM40.7559 29.0409H36.2437H36.2419C36.0263 29.0409 35.7806 29.2481 35.6747 29.4309C34.71 31.1962 32.8603 32.3897 30.7387 32.3897C28.6237 32.3897 26.7816 31.2047 25.8131 29.4525C25.7128 29.2641 25.4578 29.0409 25.2328 29.0409H24.6375C23.7291 29.0409 22.995 29.79 22.995 30.7144V32.3897H17.6644V27.6103C17.6644 25.4025 19.4222 23.6109 21.5906 23.6109H26.2266C26.7553 23.6109 27.1856 23.1731 27.1856 22.6331V21.6563H34.2881V22.6341C34.2881 23.1741 34.7184 23.6119 35.2491 23.6119H40.755V29.0409H40.7559ZM45 30.7416H42.3356V21.6563H45V30.7416" fill="#373737"/>
</svg>
