<svg width="60" height="60" viewBox="0 0 60 60" fill="none" xmlns="http://www.w3.org/2000/svg">
<path d="M38.1 30C38.1 25.5 34.5 21.9 30 21.9C25.5 21.9 21.9 25.5 21.9 30C21.9 34.5 25.5 38.1 30 38.1C34.5 38.1 38.1 34.5 38.1 30ZM42.3 30C42.3 36.9 36.9 42.3 30 42.3C23.1 42.3 17.7 36.9 17.7 30C17.7 23.1 23.1 17.7 30 17.7C36.9 17.7 42.3 23.1 42.3 30ZM45.6 17.1C45.6 18.9 44.4 20.1 42.6 20.1C40.8 20.1 39.6 18.9 39.6 17.1C39.6 15.3 40.8 14.1 42.6 14.1C44.4 14.1 45.6 15.6 45.6 17.1ZM30 10.2C26.4 10.2 18.9 9.9 15.9 11.1C13.8 12 12 13.8 11.4 15.9C10.2 18.9 10.5 26.4 10.5 30C10.5 33.6 10.2 41.1 11.4 44.1C12 46.2 13.8 48 15.9 48.6C18.9 49.8 26.7 49.5 30 49.5C33.3 49.5 41.1 49.8 44.1 48.6C46.2 47.7 47.7 46.2 48.6 44.1C49.8 40.8 49.5 33.3 49.5 30C49.5 26.7 49.8 18.9 48.6 15.9C48 13.8 46.2 12 44.1 11.4C41.1 9.9 33.6 10.2 30 10.2ZM54 30V39.9C54 43.5 52.8 47.1 50.1 50.1C47.4 52.8 43.8 54 39.9 54H20.1C16.5 54 12.9 52.8 9.9 50.1C7.5 47.4 6 43.8 6 39.9V30V20.1C6 16.2 7.5 12.6 9.9 9.9C12.9 7.5 16.5 6 20.1 6H39.9C43.5 6 47.1 7.2 50.1 9.9C52.5 12.6 54 16.2 54 20.1V30Z" fill="white"/>
</svg>
