<svg width="100" height="60" viewBox="0 0 100 60" fill="none" xmlns="http://www.w3.org/2000/svg">
<path d="M56.2167 42.2749C51.5271 42.2749 47.7208 46.2391 47.7208 51.1353C47.7208 56.0294 51.5292 60 56.2167 60C60.9083 60 64.7104 56.0294 64.7104 51.1353C64.7125 46.2369 60.9083 42.2749 56.2167 42.2749ZM56.2167 55.8259C53.7271 55.8259 51.7167 53.7281 51.7167 51.1353C51.7167 48.5447 53.7271 46.4362 56.2167 46.4362C58.6979 46.4362 60.7187 48.5447 60.7187 51.1353C60.7208 53.7281 58.7 55.8259 56.2167 55.8259ZM91.3687 3.20132C88.3625 2.13421 68.9625 0 56.1917 0C43.4229 0 22.8583 2.16207 19.8146 3.08775C19.5 3.18203 10.4167 5.75765 10.4167 15.8866V42.9199C10.4167 44.7563 11.0854 47.1412 12.0729 47.1412H0V51.4267H45.7604C45.7604 44.9984 50.4729 40.4514 56.2771 40.4514C62.0896 40.4514 66.8 44.9984 66.8 51.4267H92.2812C96.55 51.4267 100 47.364 100 42.9199V14.4488C100 10.0025 96.75 5.11482 91.3687 3.20132V3.20132ZM39.6583 24.3698C39.6583 25.2141 39.0729 25.7134 38.2687 25.7134H24.5542C23.7437 25.7134 22.9167 25.3962 22.9167 24.552V14.5623C22.9167 13.7224 23.7437 12.8567 24.5521 12.8567H38.2667C39.0708 12.8567 39.5833 13.7224 39.5833 14.5623V24.552L39.6583 24.3698V24.3698ZM89.5833 24.552C89.5833 25.3962 88.9375 25.7134 88.125 25.7134H57.7792C56.9687 25.7134 56.25 25.3962 56.25 24.552V14.5623C56.25 13.7224 56.9687 12.8567 57.7792 12.8567H88.125C88.9396 12.8567 89.5833 13.7224 89.5833 14.5623V24.552Z" fill="white"/>
</svg>
