<svg width="38" height="60" viewBox="0 0 38 60" fill="none" xmlns="http://www.w3.org/2000/svg">
<path d="M31.875 0H5.625C2.51953 0 0 2.51953 0 5.625V54.375C0 57.4805 2.51953 60 5.625 60H31.875C34.9805 60 37.5 57.4805 37.5 54.375V5.625C37.5 2.51953 34.9805 0 31.875 0ZM18.75 56.25C16.6758 56.25 15 54.5742 15 52.5C15 50.4258 16.6758 48.75 18.75 48.75C20.8242 48.75 22.5 50.4258 22.5 52.5C22.5 54.5742 20.8242 56.25 18.75 56.25ZM31.875 43.5938C31.875 44.3672 31.2422 45 30.4688 45H7.03125C6.25781 45 5.625 44.3672 5.625 43.5938V7.03125C5.625 6.25781 6.25781 5.625 7.03125 5.625H30.4688C31.2422 5.625 31.875 6.25781 31.875 7.03125V43.5938Z" fill="white"/>
</svg>
