<svg width="60" height="60" viewBox="0 0 60 60" fill="none" xmlns="http://www.w3.org/2000/svg">
<path d="M60.0001 16.5525L54.6976 11.25L44.2239 21.7238L38.2764 15.7762L48.7501 5.3025L43.4476 0L32.9739 10.4737L26.2501 3.75L21.1726 8.82375L51.1726 38.8237L56.2501 33.75L49.5264 27.0262L60.0001 16.5525Z" fill="#373737"/>
<path d="M46.5262 39.4796L20.5199 13.4734C14.9062 20.2046 8.53495 30.6109 12.9374 39.5621L5.18995 47.3096C4.31426 48.1907 3.82275 49.3824 3.82275 50.6246C3.82275 51.8668 4.31426 53.0586 5.18995 53.9396L6.05995 54.8096C6.941 55.6853 8.13274 56.1768 9.37495 56.1768C10.6172 56.1768 11.8089 55.6853 12.6899 54.8096L20.4374 47.0621C29.3887 51.4646 39.7912 45.0971 46.5262 39.4796Z" fill="#373737"/>
</svg>
