<svg width="60" height="60" viewBox="0 0 60 60" fill="none" xmlns="http://www.w3.org/2000/svg">
<path d="M30 3.75C15.5039 3.75 3.75 15.5039 3.75 30C3.75 44.4961 15.5039 56.25 30 56.25C44.4961 56.25 56.25 44.4961 56.25 30C56.25 15.5039 44.4961 3.75 30 3.75ZM31.3066 42.7266L31.3184 44.584C31.3184 44.8418 31.1074 45.0586 30.8496 45.0586H29.1855C28.9277 45.0586 28.7168 44.8477 28.7168 44.5898V42.75C23.5137 42.3633 21.0645 39.3984 20.8008 36.1758C20.7773 35.9004 20.9941 35.666 21.2695 35.666H23.9766C24.2051 35.666 24.4043 35.8301 24.4395 36.0527C24.7383 37.9102 26.1855 39.2988 28.7813 39.6445V31.2832L27.334 30.9141C24.2695 30.1816 21.3516 28.2715 21.3516 24.3105C21.3516 20.0391 24.5977 17.7422 28.7461 17.3379V15.4043C28.7461 15.1465 28.957 14.9355 29.2148 14.9355H30.8613C31.1191 14.9355 31.3301 15.1465 31.3301 15.4043V17.3203C35.3438 17.7246 38.3555 20.0684 38.707 23.7187C38.7363 23.9941 38.5195 24.2344 38.2383 24.2344H35.6074C35.373 24.2344 35.1738 24.0586 35.1445 23.8301C34.9102 22.1191 33.5391 20.7246 31.3066 20.4199V28.2891L32.7949 28.6348C36.5918 29.5723 39.1758 31.3887 39.1758 35.4551C39.1758 39.8672 35.8945 42.3281 31.3066 42.7266ZM24.9961 24.041C24.9961 25.5293 25.916 26.6836 27.8965 27.3984C28.1719 27.5098 28.4473 27.5977 28.7754 27.6914V20.4258C26.6133 20.7012 24.9961 21.9141 24.9961 24.041ZM31.8223 31.9629C31.6582 31.9277 31.4941 31.8867 31.3066 31.834V39.668C33.8027 39.4453 35.5254 38.0742 35.5254 35.7773C35.5254 33.9785 34.5937 32.8066 31.8223 31.9629Z" fill="#373737"/>
</svg>
