<svg width="60" height="60" viewBox="0 0 60 60" fill="none" xmlns="http://www.w3.org/2000/svg">
<path d="M60 53.334L42.8216 36.1556C45.9974 31.329 47.2694 25.4958 46.3913 19.7853C45.5132 14.0747 42.5475 8.89312 38.0683 5.24366C33.5892 1.59419 27.9153 -0.263523 22.1451 0.0301883C16.3749 0.323899 10.919 2.74814 6.83356 6.83356C2.74814 10.919 0.3239 16.3749 0.0301883 22.1451C-0.263523 27.9153 1.59419 33.5892 5.24366 38.0683C8.89312 42.5475 14.0747 45.5132 19.7853 46.3913C25.4958 47.2694 31.329 45.9974 36.1556 42.8216L53.334 60L60 53.334ZM6.67166 23.3368C6.67166 14.1476 14.1476 6.67166 23.3368 6.67166C32.5259 6.67166 40.0019 14.1476 40.0019 23.3368C40.0019 32.5259 32.5259 40.0019 23.3368 40.0019C14.1476 40.0019 6.67166 32.5259 6.67166 23.3368Z" fill="white"/>
</svg>
