<svg width="60" height="60" viewBox="0 0 60 60" fill="none" xmlns="http://www.w3.org/2000/svg">
<path d="M56.8202 13.38C55.3502 15.57 53.4902 17.52 51.3302 19.08C51.3602 19.53 51.3602 20.01 51.3602 20.49C51.3602 35.04 40.2902 51.81 20.0702 51.81C13.8602 51.81 8.07018 49.98 3.18018 46.86C4.05018 46.95 4.92018 47.01 5.82018 47.01C10.9802 47.01 15.7202 45.24 19.4702 42.3C17.1762 42.2525 14.9543 41.4898 13.1149 40.1183C11.2755 38.7468 9.91034 36.835 9.21018 34.65C9.87018 34.77 10.5602 34.86 11.2802 34.86C12.2702 34.86 13.2602 34.71 14.1602 34.47C11.672 33.9592 9.43602 32.606 7.82933 30.6387C6.22264 28.6713 5.34351 26.2101 5.34018 23.67V23.55C6.84018 24.36 8.52018 24.87 10.3202 24.93C8.81358 23.9194 7.57925 22.5531 6.72635 20.9519C5.87345 19.3508 5.42827 17.5641 5.43018 15.75C5.43018 13.74 5.97018 11.85 6.93018 10.23C12.3602 16.89 20.4602 21.27 29.6102 21.72C29.4302 20.91 29.3102 20.07 29.3102 19.2C29.3181 16.2851 30.4816 13.4924 32.5455 11.4341C34.6094 9.37582 37.4053 8.21996 40.3202 8.21997C43.5002 8.21997 46.3502 9.53997 48.3602 11.7C50.8502 11.19 53.2202 10.29 55.3502 9.02997C54.5102 11.58 52.7702 13.74 50.4902 15.09C52.676 14.8511 54.8114 14.2742 56.8202 13.38V13.38Z" fill="white"/>
</svg>
